<svg width="152" height="152" viewBox="0 0 152 152" fill="none" xmlns="http://www.w3.org/2000/svg">
<path fill-rule="evenodd" clip-rule="evenodd" d="M126.465 42.4248V67.5059L117.97 76L126.465 84.4951V109.576L94.9189 152H57.0459L25.5 109.576V84.4951L33.9941 76L25.5 67.5059V42.4248L57.0459 0H94.9189L126.465 42.4248ZM34.5 45.4053V63.7783L41.9697 71.248H51.3799L58.8496 63.7783V40.377H67.8496V67.5059L59.3545 76L67.8496 84.4951V111.624H58.8496V88.2227L51.3799 80.7529H41.9697L34.5 88.2227V106.596L61.5693 143H90.3955L117.465 106.596V88.2227L109.995 80.7529H100.585L93.1152 88.2227V111.624H84.1152V84.4951L92.6094 76L84.1152 67.5059V40.377H93.1152V63.7783L100.585 71.248H109.995L117.465 63.7783V45.4053L90.3955 9.00098H61.5693L34.5 45.4053Z" fill="#BBA9FF"/>
</svg>
